<svg width="1465" height="623" viewBox="0 0 1465 623" fill="none" xmlns="http://www.w3.org/2000/svg">
<path fill-rule="evenodd" clip-rule="evenodd" d="M0 589.604H105.094V201.457L200.566 177.986V589.604H308.357V152.169L403.829 126.057V589.604H507V0L0 121.8V589.604Z" fill="black"/>
<path d="M581.4 166.4L571 261H554L571 114L627 215.4L683 114L700 261H683L672.6 166.4L627 248L581.4 166.4ZM729.114 218.6C732.314 224.2 735.647 229.133 739.114 233.4C742.714 237.667 746.714 241 751.114 243.4C755.514 245.8 760.514 247 766.114 247C773.581 247 779.581 244.933 784.114 240.8C788.647 236.667 790.914 231.4 790.914 225C790.914 218.733 789.447 213.733 786.514 210C783.581 206.267 779.714 203.267 774.914 201C770.247 198.6 765.247 196.467 759.914 194.6C756.447 193.4 752.581 191.867 748.314 190C744.047 188 739.981 185.533 736.114 182.6C732.247 179.533 729.047 175.8 726.514 171.4C724.114 167 722.914 161.6 722.914 155.2C722.914 148.267 724.647 142.067 728.114 136.6C731.581 131.133 736.381 126.867 742.514 123.8C748.647 120.6 755.647 119 763.514 119C771.114 119 777.714 120.467 783.314 123.4C789.047 126.2 793.914 129.867 797.914 134.4C801.914 138.8 805.047 143.467 807.314 148.4L792.714 156.8C790.981 153.333 788.781 149.933 786.114 146.6C783.447 143.267 780.181 140.533 776.314 138.4C772.581 136.267 767.981 135.2 762.514 135.2C754.914 135.2 749.381 137.067 745.914 140.8C742.447 144.4 740.714 148.467 740.714 153C740.714 156.867 741.714 160.467 743.714 163.8C745.714 167 749.047 170.067 753.714 173C758.514 175.8 764.981 178.6 773.114 181.4C776.847 182.733 780.781 184.467 784.914 186.6C789.047 188.733 792.847 191.467 796.314 194.8C799.914 198 802.847 201.933 805.114 206.6C807.381 211.133 808.514 216.6 808.514 223C808.514 229.133 807.314 234.667 804.914 239.6C802.647 244.533 799.447 248.733 795.314 252.2C791.314 255.667 786.714 258.333 781.514 260.2C776.447 262.067 771.114 263 765.514 263C757.914 263 750.847 261.4 744.314 258.2C737.914 254.867 732.247 250.533 727.314 245.2C722.514 239.733 718.581 233.933 715.514 227.8L729.114 218.6ZM833.484 121H850.484V261H833.484V121ZM875.484 261H842.884V244H875.484C883.351 244 890.551 242.8 897.084 240.4C903.618 237.867 909.218 234.333 913.884 229.8C918.551 225.133 922.151 219.533 924.684 213C927.218 206.467 928.484 199.133 928.484 191C928.484 182.867 927.218 175.533 924.684 169C922.151 162.467 918.551 156.933 913.884 152.4C909.218 147.733 903.618 144.2 897.084 141.8C890.551 139.267 883.351 138 875.484 138H842.884V121H875.484C889.084 121 901.151 123.933 911.684 129.8C922.218 135.667 930.484 143.867 936.484 154.4C942.484 164.8 945.484 177 945.484 191C945.484 205 942.484 217.267 936.484 227.8C930.484 238.2 922.218 246.333 911.684 252.2C901.151 258.067 889.084 261 875.484 261ZM1153.98 224L1190.38 121H1209.38L1154.38 268L1112.38 159.2L1070.38 268L1015.38 121H1034.38L1071.58 224L1112.38 114L1153.98 224ZM1236.83 261V245H1307.43V261H1236.83ZM1236.83 137V121H1307.43V137H1236.83ZM1236.83 193V177H1303.43V193H1236.83ZM1227.43 121H1244.43V261H1227.43V121ZM1350.79 187V177.6H1373.39C1378.06 177.6 1382.26 176.8 1385.99 175.2C1389.72 173.6 1392.66 171.267 1394.79 168.2C1396.92 165.133 1397.99 161.4 1397.99 157C1397.99 150.333 1395.66 145.2 1390.99 141.6C1386.32 137.867 1380.46 136 1373.39 136H1354.39V246H1375.39C1381.39 246 1386.66 244.933 1391.19 242.8C1395.86 240.667 1399.46 237.6 1401.99 233.6C1404.66 229.6 1405.99 224.733 1405.99 219C1405.99 214.733 1405.26 210.933 1403.79 207.6C1402.32 204.267 1400.19 201.467 1397.39 199.2C1394.72 196.933 1391.52 195.267 1387.79 194.2C1384.06 193 1379.92 192.4 1375.39 192.4H1350.79V183H1375.39C1382.19 183 1388.46 183.733 1394.19 185.2C1399.92 186.667 1404.92 188.933 1409.19 192C1413.59 194.933 1416.99 198.733 1419.39 203.4C1421.79 208.067 1422.99 213.6 1422.99 220C1422.99 229.2 1420.86 236.867 1416.59 243C1412.46 249 1406.79 253.533 1399.59 256.6C1392.52 259.533 1384.46 261 1375.39 261H1337.39V121H1373.39C1381.79 121 1389.06 122.267 1395.19 124.8C1401.46 127.333 1406.32 131.2 1409.79 136.4C1413.26 141.467 1414.99 148 1414.99 156C1414.99 162.533 1413.26 168.133 1409.79 172.8C1406.32 177.467 1401.46 181 1395.19 183.4C1389.06 185.8 1381.79 187 1373.39 187H1350.79Z" fill="black"/>
<path d="M560.6 302H592.05V561H560.6V302ZM577.99 331.6V302H630.9C647.673 302 662.597 305.207 675.67 311.62C688.99 317.787 699.473 326.667 707.12 338.26C715.013 349.853 718.96 363.667 718.96 379.7C718.96 395.487 715.013 409.3 707.12 421.14C699.473 432.733 688.99 441.737 675.67 448.15C662.597 454.317 647.673 457.4 630.9 457.4H577.99V427.8H630.9C647.673 427.8 661.24 423.73 671.6 415.59C682.207 407.45 687.51 395.487 687.51 379.7C687.51 363.667 682.207 351.703 671.6 343.81C661.24 335.67 647.673 331.6 630.9 331.6H577.99ZM809.555 433.35H844.705L937.205 561H898.355L809.555 433.35ZM763.305 302H794.755V561H763.305V302ZM780.695 329.75V302H833.605C850.378 302 865.302 305.207 878.375 311.62C891.695 317.787 902.178 326.667 909.825 338.26C917.718 349.853 921.665 363.667 921.665 379.7C921.665 395.487 917.718 409.3 909.825 421.14C902.178 432.733 891.695 441.737 878.375 448.15C865.302 454.317 850.378 457.4 833.605 457.4H780.695V429.65H833.605C844.705 429.65 854.448 427.677 862.835 423.73C871.468 419.783 878.128 414.11 882.815 406.71C887.748 399.31 890.215 390.307 890.215 379.7C890.215 369.093 887.748 360.09 882.815 352.69C878.128 345.29 871.468 339.617 862.835 335.67C854.448 331.723 844.705 329.75 833.605 329.75H780.695ZM988.846 431.5C988.846 450.987 993.039 468.377 1001.43 483.67C1010.06 498.963 1021.78 511.05 1036.58 519.93C1051.38 528.81 1068.15 533.25 1086.9 533.25C1105.89 533.25 1122.66 528.81 1137.22 519.93C1152.02 511.05 1163.61 498.963 1172 483.67C1180.63 468.377 1184.95 450.987 1184.95 431.5C1184.95 412.013 1180.63 394.623 1172 379.33C1163.61 364.037 1152.02 351.95 1137.22 343.07C1122.66 334.19 1105.89 329.75 1086.9 329.75C1068.15 329.75 1051.38 334.19 1036.58 343.07C1021.78 351.95 1010.06 364.037 1001.43 379.33C993.039 394.623 988.846 412.013 988.846 431.5ZM955.546 431.5C955.546 412.507 958.753 394.993 965.166 378.96C971.826 362.68 981.076 348.62 992.916 336.78C1004.76 324.693 1018.69 315.32 1034.73 308.66C1050.76 301.753 1068.15 298.3 1086.9 298.3C1105.89 298.3 1123.28 301.753 1139.07 308.66C1155.1 315.32 1169.04 324.693 1180.88 336.78C1192.72 348.62 1201.84 362.68 1208.26 378.96C1214.92 394.993 1218.25 412.507 1218.25 431.5C1218.25 450.247 1214.92 467.76 1208.26 484.04C1201.84 500.32 1192.72 514.503 1180.88 526.59C1169.04 538.43 1155.1 547.803 1139.07 554.71C1123.28 561.37 1105.89 564.7 1086.9 564.7C1068.15 564.7 1050.76 561.37 1034.73 554.71C1018.69 547.803 1004.76 538.43 992.916 526.59C981.076 514.503 971.826 500.32 965.166 484.04C958.753 467.76 955.546 450.247 955.546 431.5ZM1272.28 482.56C1278.2 492.92 1284.37 502.047 1290.78 509.94C1297.44 517.833 1304.84 524 1312.98 528.44C1321.12 532.88 1330.37 535.1 1340.73 535.1C1354.54 535.1 1365.64 531.277 1374.03 523.63C1382.42 515.983 1386.61 506.24 1386.61 494.4C1386.61 482.807 1383.9 473.557 1378.47 466.65C1373.04 459.743 1365.89 454.193 1357.01 450C1348.38 445.56 1339.13 441.613 1329.26 438.16C1322.85 435.94 1315.69 433.103 1307.8 429.65C1299.91 425.95 1292.38 421.387 1285.23 415.96C1278.08 410.287 1272.16 403.38 1267.47 395.24C1263.03 387.1 1260.81 377.11 1260.81 365.27C1260.81 352.443 1264.02 340.973 1270.43 330.86C1276.84 320.747 1285.72 312.853 1297.07 307.18C1308.42 301.26 1321.37 298.3 1335.92 298.3C1349.98 298.3 1362.19 301.013 1372.55 306.44C1383.16 311.62 1392.16 318.403 1399.56 326.79C1406.96 334.93 1412.76 343.563 1416.95 352.69L1389.94 368.23C1386.73 361.817 1382.66 355.527 1377.73 349.36C1372.8 343.193 1366.75 338.137 1359.6 334.19C1352.69 330.243 1344.18 328.27 1334.07 328.27C1320.01 328.27 1309.77 331.723 1303.36 338.63C1296.95 345.29 1293.74 352.813 1293.74 361.2C1293.74 368.353 1295.59 375.013 1299.29 381.18C1302.99 387.1 1309.16 392.773 1317.79 398.2C1326.67 403.38 1338.63 408.56 1353.68 413.74C1360.59 416.207 1367.86 419.413 1375.51 423.36C1383.16 427.307 1390.19 432.363 1396.6 438.53C1403.26 444.45 1408.69 451.727 1412.88 460.36C1417.07 468.747 1419.17 478.86 1419.17 490.7C1419.17 502.047 1416.95 512.283 1412.51 521.41C1408.32 530.537 1402.4 538.307 1394.75 544.72C1387.35 551.133 1378.84 556.067 1369.22 559.52C1359.85 562.973 1349.98 564.7 1339.62 564.7C1325.56 564.7 1312.49 561.74 1300.4 555.82C1288.56 549.653 1278.08 541.637 1268.95 531.77C1260.07 521.657 1252.79 510.927 1247.12 499.58L1272.28 482.56Z" fill="black"/>
</svg>
