<?xml version="1.0" encoding="UTF-8"?>
<svg id="Layer_1" xmlns="http://www.w3.org/2000/svg" xmlns:xlink="http://www.w3.org/1999/xlink" version="1.1" viewBox="0 0 800 400">
  <!-- Generator: Adobe Illustrator 29.3.0, SVG Export Plug-In . SVG Version: 2.1.0 Build 146)  -->
  <defs>
    <style>
      .st0, .st1, .st2 {
        fill: none;
      }

      .st1 {
        stroke-width: .5px;
      }

      .st1, .st2 {
        stroke: rgb(255, 255, 255, 0.15);
        stroke-miterlimit: 10;
      }

      .st2 {
        stroke-width: .5px;
   
      }

      .st3 {
        clip-path: url(#clippath);
      }
    </style>
    <clipPath id="clippath">
      <rect class="st0" width="800" height="400"/>
    </clipPath>
  </defs>
  <g class="st3">
    <g>
      <path class="st2" d="M-386.5,30.2c40.5-45.2,108.3-58.3,167.5-45.2C-159.8-1.9-108,33.6-62.3,73.5-16.7,113.4,24.6,158.4,72.5,195.6c47.9,37.2,104.3,66.9,164.9,69.7,108.7,5,203.8-75.6,311.9-88.9,109.7-13.5,214.4,43.4,310.3,98.4"/>
      <path class="st2" d="M861.2,267.9c-94.8-51.4-198.2-104.7-306.4-89.3-20,2.8-39.6,8-58.9,14.5-39.1,13.1-77,31.7-115.5,47.4-39.3,16-79.1,29-120.9,29.8-4.7,0-9.4,0-14.1-.2-60.5-2.8-116.9-32.6-164-70.5-21.6-17.4-41.3-36.8-60.9-56.4C.9,123.8-18.6,103.8-39.3,85.2c-5-4.5-10.1-8.9-15.2-13.2-19.9-16.6-41-31.9-63-44.8C-145.4,10.9-174.9-1.6-206.2-8.4c-3.3-.7-6.5-1.3-9.8-1.9-28.2-4.9-58.4-4.1-87,2.3-32.4,7.3-62.9,22-85.3,44.3"/>
      <path class="st2" d="M862.9,261c-93.7-47.9-195.7-97.6-302.5-80.3-19.8,3.2-39.1,8.7-58.1,15.4-38.6,13.7-76.1,32.7-114.3,48.7-39,16.3-78.8,29.5-120.4,30.4-4.7,0-9.3,0-14.1-.2-60.3-2.9-116.8-32.8-163.1-71.2-21.9-18.2-41.2-38.8-60.7-59.4-19.5-20.5-39.1-41.5-60.6-60.5-5.2-4.6-10.5-9.1-15.9-13.4-20.7-16.7-42.9-31.3-65.6-43.2-28.9-15.1-58.8-26.1-90.7-31.4-3.3-.5-6.6-1-10-1.5-28.7-3.6-59.3-1.8-88.7,5.2-33.3,7.9-65.1,22.2-88.3,42.8"/>
      <path class="st2" d="M864.7,254.2c-92.6-44.3-193.3-90.4-298.7-71.2-19.5,3.5-38.6,9.3-57.4,16.3-38.1,14.2-75.1,33.6-113,49.9-38.7,16.6-78.4,30.1-120,30.9-4.7,0-9.3,0-14-.2-60.2-2.9-116.7-32.9-162.3-72-22.2-19-41-40.8-60.4-62.4C19.4,124-.4,102-22.6,82.6c-5.4-4.7-10.9-9.2-16.5-13.5-21.6-16.7-44.8-30.7-68.2-41.7C-137.1,13.4-167.7,4.1-200.1.2c-3.4-.4-6.7-.7-10.1-1-29.2-2.3-60.3.6-90.5,8-34.1,8.4-67.3,22.4-91.4,41.3"/>
      <path class="st2" d="M866.4,247.3c-91.5-40.8-190.9-83.2-294.8-62.2-19.2,3.9-38,9.9-56.6,17.2-37.6,14.7-74.2,34.6-111.8,51.2-38.4,17-78,30.6-119.6,31.5-4.7,0-9.3,0-14-.2-60.1-3-116.6-33.1-161.4-72.7-22.5-19.9-40.9-42.8-60.2-65.4C28.7,124.1,8.7,101.1-14.3,81.2c-5.6-4.8-11.3-9.4-17.1-13.7-22.4-16.7-46.6-30.2-70.9-40.2-30.7-12.8-61.9-20.4-94.8-22.9-3.4-.2-6.8-.4-10.3-.6-29.6-1.1-61.2,2.9-92.2,10.9-35,8.9-69.5,22.6-94.4,39.8"/>
      <path class="st2" d="M868.2,240.4c-90.3-37.2-188.5-76.1-290.9-53.1-19,4.2-37.5,10.6-55.8,18.1-37.1,15.3-73.2,35.5-110.5,52.5-38.1,17.3-77.6,31.1-119.1,32-4.6.1-9.3,0-14-.2-60-3-116.5-33.3-160.6-73.5-22.7-20.7-40.8-44.9-60-68.4-19.2-23.5-39.3-47.6-63.1-67.8-5.8-4.9-11.7-9.5-17.7-13.8-23.2-16.7-48.5-29.6-73.5-38.7-31.7-11.6-63.4-17.6-96.8-18.6-3.5,0-6.9-.1-10.5-.1-30.1.2-62.2,5.3-93.9,13.7-35.8,9.5-71.7,22.8-97.5,38.3"/>
      <path class="st2" d="M869.9,233.5c-89.2-33.6-186-68.9-287.1-44.1-18.7,4.6-37,11.2-55.1,19-36.6,15.8-72.2,36.4-109.3,53.7-37.8,17.6-77.2,31.6-118.7,32.6-4.6.1-9.3,0-14-.2-59.9-3-116.4-33.6-159.7-74.2-23-21.5-40.6-46.9-59.7-71.4C47.3,124.3,27,99.2,2.4,78.6c-5.9-5-12.1-9.7-18.3-14-24.1-16.8-50.4-29-76.2-37.1-32.6-10.4-64.9-14.8-98.9-14.3-3.5,0-7.1.2-10.6.3-30.6,1.5-63.1,7.6-95.7,16.5-36.7,10-73.9,23-100.5,36.8"/>
      <path class="st2" d="M871.6,226.6c-88.1-30.1-183.6-61.8-283.2-35-18.4,4.9-36.5,11.9-54.3,19.9-36.1,16.3-71.3,37.4-108.1,55-37.5,17.9-76.8,32.2-118.2,33.1-4.6.1-9.3,0-14-.2-59.8-3.1-116.2-33.9-158.9-75-23.3-22.4-40.5-48.9-59.5-74.5-19-25.5-39.4-51.7-64.7-72.7-6.1-5.1-12.5-9.8-18.9-14.2-24.9-16.8-52.3-28.4-78.8-35.6-33.6-9.2-66.5-12-100.9-10-3.6.2-7.2.5-10.8.8-31,2.7-64.1,10-97.4,19.4-37.6,10.6-76,23.2-103.6,35.3"/>
      <path class="st2" d="M873.4,219.8c-87-26.5-181.2-54.6-279.3-26-18.2,5.3-36,12.5-53.5,20.8-35.6,16.9-70.3,38.3-106.8,56.2-37.2,18.2-76.4,32.7-117.8,33.7-4.6.1-9.3,0-13.9-.2-59.7-3.1-116-34.2-158-75.7-23.5-23.2-40.4-50.9-59.3-77.5-18.9-26.6-39.5-53.7-65.5-75.1-6.3-5.2-12.9-10-19.6-14.3-25.8-16.8-54.2-27.8-81.4-34.1-34.5-8-68-9.2-103-5.8-3.6.4-7.3.8-10.9,1.2-31.5,4-65,12.3-99.1,22.2-38.4,11.1-78.2,23.4-106.6,33.9"/>
      <path class="st2" d="M875.1,212.9c-85.9-23-178.8-47.4-275.5-16.9-17.9,5.6-35.4,13.1-52.7,21.7-35.1,17.4-69.4,39.3-105.6,57.5-36.9,18.5-76.1,33.2-117.3,34.2-4.6.1-9.3,0-13.9-.2-59.6-3.2-115.8-34.5-157.2-76.5-23.8-24.1-40.2-52.9-59.1-80.5-18.8-27.6-39.6-55.8-66.3-77.6-6.5-5.3-13.3-10.1-20.2-14.5-26.6-16.9-56.1-27.2-84.1-32.6-35.5-6.8-69.5-6.3-105-1.5-3.7.5-7.4,1.1-11.1,1.7-32,5.3-66,14.7-100.9,25-39.3,11.6-80.4,23.6-109.7,32.4"/>
      <path class="st2" d="M876.9,206c-84.8-19.4-176.3-40.3-271.6-7.9-17.6,6-34.9,13.8-52,22.6-34.6,17.9-68.4,40.2-104.3,58.7-36.6,18.8-75.7,33.8-116.9,34.8-4.6.1-9.3,0-13.9-.2-59.5-3.2-115.6-34.8-156.3-77.2-24-25-40.1-54.9-58.8-83.5-18.7-28.6-39.6-57.8-67.2-80-6.7-5.4-13.6-10.3-20.8-14.6-27.5-16.9-58-26.7-86.7-31-36.4-5.6-71.1-3.5-107,2.8-3.7.6-7.5,1.3-11.2,2.1-32.4,6.5-66.9,17-102.6,27.9-40.1,12.2-82.6,23.8-112.7,30.9"/>
      <path class="st2" d="M878.6,199.1c-83.7-15.8-173.9-33.1-267.7,1.2-17.4,6.3-34.4,14.4-51.2,23.5-34.1,18.5-67.4,41.1-103.1,60-36.3,19.1-75.3,34.3-116.4,35.3-4.6.1-9.2,0-13.9-.2-59.3-3.2-115.4-35.2-155.5-77.9-24.3-25.9-40-57-58.6-86.5-18.6-29.6-39.7-59.8-68-82.4-6.9-5.5-14-10.4-21.4-14.8C-5.5,40.2-37.1,31-66.6,27.6c-37.4-4.4-72.6-.7-109.1,7-3.8.8-7.6,1.6-11.4,2.5-32.9,7.8-67.9,19.4-104.3,30.7-41,12.7-84.8,24-115.8,29.4"/>
      <path class="st2" d="M880.3,192.2c-82.6-12.3-171.5-25.9-263.9,10.2-17.1,6.7-33.9,15.1-50.4,24.4-33.6,19-66.5,42.1-101.9,61.3-36,19.4-74.9,34.8-116,35.8-4.6.1-9.2,0-13.8-.2-59.2-3.3-115.2-35.6-154.6-78.7-24.5-26.8-39.9-59-58.4-89.6-18.5-30.6-39.7-61.9-68.8-84.9-7.1-5.6-14.4-10.6-22-15C1.4,38.7-31.2,30.1-61.5,27.6c-38.3-3.2-74.1,2.1-111.1,11.3-3.8.9-7.7,1.9-11.6,3-33.4,9-68.8,21.8-106.1,33.6-41.9,13.2-87,24.2-118.8,27.9"/>
      <path class="st2" d="M882.1,185.4c-81.5-8.7-169.1-18.8-260,19.3-16.8,7-33.3,15.7-49.7,25.3-33.1,19.5-65.5,43-100.6,62.5-35.7,19.7-74.5,35.4-115.5,36.4-4.6.1-9.2,0-13.8-.2-59.1-3.3-114.9-36-153.8-79.4-24.7-27.7-39.7-61-58.1-92.6-18.4-31.6-39.8-63.9-69.6-87.3-7.3-5.7-14.8-10.7-22.6-15.1C8.2,37.2-25.4,29.2-56.4,27.7c-39.2-2-75.6,5-113.1,15.6-3.9,1.1-7.8,2.2-11.7,3.4-33.8,10.3-69.8,24.1-107.8,36.4-42.7,13.8-89.2,24.4-121.9,26.4"/>
      <path class="st2" d="M883.8,178.5c-80.4-5.2-166.6-11.6-256.1,28.3-16.6,7.4-32.8,16.3-48.9,26.2-32.6,20.1-64.6,43.9-99.4,63.8-35.4,20.1-74.1,35.9-115.1,36.9-4.6.1-9.2,0-13.8-.2-59-3.4-114.7-36.4-152.9-80.2-24.9-28.6-39.6-63-57.9-95.6-18.3-32.6-39.9-65.9-70.4-89.7-7.4-5.8-15.2-10.9-23.3-15.3C15.1,35.7-19.5,28.3-51.3,27.7c-40.2-.8-77.2,7.8-115.2,19.8-3.9,1.2-7.9,2.5-11.9,3.9-34.3,11.6-70.7,26.5-109.5,39.2-43.6,14.3-91.3,24.6-124.9,24.9"/>
      <path class="st2" d="M885.6,171.6c-79.3-1.6-164.2-4.5-252.3,37.4-16.3,7.7-32.3,17-48.1,27.1-32.1,20.6-63.6,44.9-98.1,65-35.1,20.4-73.7,36.4-114.7,37.5-4.6.1-9.2,0-13.8-.2-58.9-3.4-114.4-36.8-152.1-80.9-25.2-29.5-39.5-65-57.7-98.6-18.2-33.6-39.9-68-71.2-92.2-7.6-5.9-15.6-11-23.9-15.4C22,34.2-13.7,27.4-46.2,27.7c-41.1.3-78.7,10.6-117.2,24.1-4,1.4-8,2.8-12,4.3-34.8,12.8-71.7,28.8-111.3,42.1-44.5,14.9-93.5,24.9-128,23.5"/>
      <path class="st2" d="M887.3,164.7c-78.2,1.9-161.8,2.7-248.4,46.4-16,8.1-31.8,17.6-47.4,28-31.6,21.1-62.6,45.8-96.9,66.3-34.8,20.7-73.3,37-114.2,38-4.6.1-9.2,0-13.8-.2-58.8-3.4-114.1-37.2-151.2-81.7-25.4-30.4-39.3-67-57.4-101.6-18.1-34.6-40-70-72-94.6-7.8-6-16-11.2-24.5-15.6C28.9,32.6-7.8,26.5-41.1,27.8c-42.1,1.5-80.2,13.4-119.2,28.4-4,1.5-8.1,3.1-12.2,4.8-35.2,14.1-72.6,31.2-113,44.9-45.3,15.4-95.7,25.1-131,22"/>
      <path class="st2" d="M889,157.8c-77.1,5.5-159.4,9.9-244.5,55.5-15.8,8.4-31.3,18.3-46.6,28.9-31.1,21.7-61.7,46.8-95.7,67.6-34.5,21-73,37.5-113.8,38.6-4.6.1-9.2,0-13.7-.2-58.7-3.5-113.8-37.6-150.3-82.4-25.6-31.3-39.2-69.1-57.2-104.6-18-35.6-40-72-72.9-97.1-8-6.1-16.4-11.3-25.1-15.8C35.8,31.1-2,25.6-36,27.8c-43,2.7-81.7,16.2-121.3,32.7-4.1,1.7-8.2,3.4-12.4,5.2-35.7,15.4-73.6,33.5-114.7,47.8-46.2,15.9-97.9,25.3-134.1,20.5"/>
      <path class="st2" d="M890.8,151c-76,9.1-156.9,17-240.7,64.5-15.5,8.8-30.7,18.9-45.8,29.8-30.6,22.2-60.7,47.7-94.4,68.8-34.2,21.3-72.6,38-113.3,39.1-4.6.1-9.2,0-13.7-.2-58.6-3.5-113.5-38.1-149.5-83.2-25.8-32.3-39.1-71.1-57-107.7-17.9-36.6-40.1-74-73.7-99.5-8.2-6.2-16.8-11.5-25.7-15.9C42.7,29.6,3.9,24.7-30.9,27.8c-44,3.9-83.3,19.1-123.3,36.9-4.1,1.8-8.3,3.7-12.5,5.7-36.2,16.6-74.5,35.9-116.5,50.6-47,16.5-100.1,25.5-137.1,19"/>
      <path class="st2" d="M892.5,144.1c-74.9,12.6-154.5,24.2-236.8,73.6-15.2,9.1-30.2,19.5-45,30.7-30.1,22.7-59.8,48.6-93.2,70.1-33.9,21.6-72.2,38.6-112.9,39.7-4.6.1-9.1,0-13.7-.2-58.4-3.6-113.2-38.5-148.6-83.9-26-33.2-38.9-73.1-56.7-110.7-17.8-37.6-40.1-76.1-74.5-101.9-8.4-6.3-17.2-11.6-26.4-16.1C49.6,28.1,9.7,23.8-25.8,27.9c-44.9,5.1-84.8,21.9-125.3,41.2-4.2,2-8.4,4-12.7,6.1-36.6,17.9-75.5,38.2-118.2,53.4-47.9,17-102.3,25.7-140.2,17.5"/>
      <path class="st2" d="M894.3,137.2c-73.8,16.2-152.1,31.4-232.9,82.6-15,9.5-29.7,20.2-44.3,31.6-29.6,23.3-58.8,49.6-91.9,71.3-33.6,21.9-71.8,39.1-112.4,40.2-4.6.1-9.1,0-13.7-.2-58.3-3.6-112.8-39-147.8-84.7-26.1-34.2-38.8-75.1-56.5-113.7-17.7-38.6-40.2-78.1-75.3-104.4-8.6-6.4-17.6-11.8-27-16.2C56.5,26.6,15.6,22.9-20.7,27.9c-45.9,6.3-86.3,24.7-127.4,45.5-4.3,2.1-8.5,4.3-12.8,6.5-37.1,19.2-76.4,40.6-119.9,56.3-48.8,17.5-104.5,25.9-143.2,16"/>
      <path class="st2" d="M896,130.3c-72.7,19.7-149.7,38.5-229.1,91.6-14.7,9.8-29.2,20.8-43.5,32.5-29.1,23.8-57.8,50.5-90.7,72.6-33.3,22.2-71.4,39.6-112,40.8-4.6.1-9.1,0-13.7-.2-58.2-3.6-112.5-39.5-146.9-85.4-26.3-35.1-38.7-77.1-56.3-116.7-17.6-39.6-40.3-80.1-76.1-106.8-8.7-6.5-18-11.9-27.6-16.4C63.4,25.1,21.4,22-15.6,27.9c-46.8,7.5-87.8,27.5-129.4,49.7-4.3,2.3-8.6,4.6-13,7-37.6,20.4-77.4,42.9-121.7,59.1-49.6,18.1-106.7,26.1-146.3,14.5"/>
      <path class="st2" d="M897.7,123.4c-71.6,23.3-147.2,45.7-225.2,100.7-14.4,10.2-28.6,21.5-42.7,33.4-28.6,24.3-56.9,51.5-89.5,73.8-33,22.5-71,40.1-111.5,41.3-4.6.1-9.1,0-13.6-.2-58.1-3.7-112.2-39.9-146.1-86.2-26.5-36.1-38.5-79.1-56-119.7-17.5-40.6-40.3-82.2-76.9-109.2-8.9-6.6-18.4-12.1-28.2-16.6C70.3,23.5,27.3,21-10.5,28c-47.8,8.7-89.4,30.4-131.5,54-4.4,2.4-8.7,4.9-13.1,7.4-38,21.7-78.3,45.3-123.4,61.9-50.5,18.6-108.8,26.3-149.3,13.1"/>
      <path class="st2" d="M899.5,116.6c-70.5,26.8-144.8,52.8-221.3,109.7-14.2,10.5-28.1,22.1-42,34.3-28.1,24.9-55.9,52.4-88.2,75.1-32.7,22.9-70.6,40.7-111.1,41.8-4.6.1-9.1,0-13.6-.2-58-3.7-111.8-40.4-145.2-86.9-26.6-37-38.4-81.2-55.8-122.8-17.4-41.6-40.4-84.2-77.7-111.7-9.1-6.7-18.8-12.2-28.8-16.7C77.2,22,33.1,20.1-5.4,28c-48.7,9.9-90.9,33.2-133.5,58.3-4.4,2.6-8.8,5.2-13.3,7.9-38.5,23-79.3,47.7-125.1,64.8-51.3,19.1-111,26.5-152.4,11.6"/>
      <path class="st2" d="M901.2,109.7c-69.4,30.4-142.4,60-217.5,118.8-13.9,10.9-27.6,22.7-41.2,35.2-27.6,25.4-55,53.3-87,76.4-32.4,23.2-70.3,41.2-110.6,42.4-4.6.1-9.1,0-13.6-.2-57.9-3.8-111.4-40.9-144.4-87.7-26.8-38-38.3-83.2-55.6-125.8-17.3-42.6-40.4-86.2-78.6-114.1-9.3-6.8-19.2-12.4-29.4-16.9C84,20.5,39,19.2-.3,28c-49.6,11.1-92.4,36-135.5,62.6-4.5,2.7-8.9,5.5-13.5,8.3-39,24.2-80.2,50-126.8,67.6-52.2,19.7-113.2,26.7-155.4,10.1"/>
      <path class="st2" d="M903,102.8c-68.3,34-140,67.2-213.6,127.8-13.6,11.2-27.1,23.4-40.4,36.1-27.1,25.9-54,54.3-85.7,77.6-32.1,23.5-69.9,41.7-110.2,42.9-4.5.1-9.1,0-13.6-.2-57.8-3.8-111.1-41.4-143.5-88.4-26.9-39-38.1-85.2-55.3-128.8-17.2-43.6-40.5-88.3-79.4-116.5-9.5-6.9-19.6-12.5-30.1-17C90.9,19,44.8,18.3,4.8,28.1c-50.6,12.3-93.9,38.8-137.6,66.8-4.5,2.9-9.1,5.8-13.6,8.8-39.4,25.5-81.2,52.4-128.6,70.5-53.1,20.2-115.4,26.9-158.5,8.6"/>
      <path class="st2" d="M904.7,95.9c-67.2,37.5-137.5,74.3-209.7,136.9-13.4,11.6-26.6,24-39.6,37-26.6,26.5-53,55.2-84.5,78.9-31.8,23.8-69.5,42.3-109.8,43.5-4.5.1-9.1,0-13.6-.2-57.7-3.8-110.7-41.9-142.7-89.1-27-39.9-38-87.2-55.1-131.8-17.1-44.6-40.6-90.3-80.2-119-9.7-7-20-12.7-30.7-17.2C97.8,17.5,50.7,17.4,9.9,28.1c-51.5,13.4-95.5,41.6-139.6,71.1-4.6,3-9.2,6.1-13.8,9.2-39.9,26.8-82.1,54.7-130.3,73.3-53.9,20.8-117.6,27.1-161.5,7.1"/>
      <path class="st2" d="M906.4,89c-66,41.1-135.1,81.5-205.9,145.9-13.1,11.9-26,24.7-38.9,37.9-26.1,27-52.1,56.1-83.3,80.1-31.5,24.1-69.1,42.8-109.3,44-4.5.1-9.1,0-13.5-.2-57.6-3.9-110.3-42.3-141.8-89.9-27.1-40.9-37.9-89.2-54.9-134.8-17-45.6-40.6-92.3-81-121.4-9.9-7.1-20.4-12.8-31.3-17.4C104.7,15.9,56.5,16.5,15,28.1c-52.5,14.6-97,44.5-141.6,75.4-4.6,3.2-9.3,6.4-13.9,9.7-40.4,28-83.1,57.1-132,76.1-54.8,21.3-119.8,27.3-164.6,5.6"/>
      <path class="st2" d="M908.2,82.2c-64.9,44.6-132.7,88.6-202,155-12.8,12.3-25.5,25.3-38.1,38.8-25.6,27.5-51.1,57.1-82,81.4-31.2,24.4-68.7,43.3-108.9,44.6-4.5.1-9,0-13.5-.2-57.4-3.9-109.9-42.8-141-90.6-27.2-41.9-37.8-91.2-54.6-137.8-16.9-46.6-40.7-94.4-81.8-123.8-10-7.2-20.8-13-31.9-17.5C111.6,14.4,62.4,15.6,20.1,28.2c-53.4,15.8-98.5,47.3-143.7,79.6-4.7,3.3-9.4,6.7-14.1,10.1-40.8,29.3-84,59.4-133.8,79-55.7,21.8-122,27.5-167.6,4.1"/>
      <path class="st2" d="M909.9,75.3c-63.8,48.2-130.3,95.8-198.1,164-12.6,12.6-25,25.9-37.3,39.7-25.1,28-50.2,58-80.8,82.6-30.9,24.7-68.3,43.9-108.4,45.1-4.5.1-9,0-13.5-.3-57.3-4-109.5-43.3-140.1-91.4-27.3-42.9-37.6-93.2-54.4-140.9-16.8-47.6-40.7-96.4-82.6-126.3-10.2-7.3-21.2-13.1-32.5-17.7-43.6-17.4-93.8-15.6-136.9-2.1-54.4,17-100.1,50.1-145.7,83.9-4.7,3.5-9.5,7-14.3,10.5-41.3,30.6-85,61.8-135.5,81.8-56.5,22.4-124.1,27.7-170.7,2.7"/>
      <path class="st2" d="M911.7,68.4c-62.7,51.7-127.8,103-194.3,173.1-12.3,13-24.5,26.6-36.6,40.6-24.6,28.6-49.2,59-79.5,83.9-30.6,25-67.9,44.4-108,45.7-4.5.1-9,0-13.5-.3-57.2-4-109.1-43.8-139.2-92.1-27.4-43.9-37.5-95.3-54.2-143.9-16.7-48.6-40.8-98.4-83.4-128.7-10.4-7.4-21.6-13.3-33.2-17.8-44.4-17.4-95.7-15.1-139.5-.6-55.3,18.2-101.6,52.9-147.7,88.2-4.8,3.6-9.6,7.3-14.4,11-41.8,31.8-85.9,64.1-137.2,84.6-57.4,22.9-126.3,27.9-173.7,1.2"/>
      <path class="st2" d="M913.4,61.5c-61.6,55.3-125.4,110.1-190.4,182.1-12,13.3-23.9,27.2-35.8,41.5-24.1,29.1-48.2,59.9-78.3,85.2-30.3,25.3-67.6,44.9-107.5,46.2-4.5.1-9,0-13.5-.3-57.1-4-108.7-44.3-138.4-92.9-27.5-44.9-37.4-97.3-53.9-146.9-16.6-49.6-40.9-100.5-84.3-131.1-10.6-7.5-21.9-13.4-33.8-18-45.3-17.5-97.6-14.5-142.2.9-56.3,19.4-103.1,55.8-149.8,92.4-4.8,3.8-9.7,7.6-14.6,11.4-42.2,33.1-86.9,66.5-139,87.5-58.2,23.4-128.5,28.2-176.8-.3"/>
      <path class="st2" d="M915.1,54.6c-60.5,58.9-123,117.3-186.5,191.2-11.8,13.7-23.4,27.9-35,42.4-23.6,29.6-47.3,60.8-77.1,86.4-30,25.6-67.2,45.5-107.1,46.8-4.5.1-9,0-13.4-.3-57-4.1-108.2-44.8-137.5-93.6-27.6-45.9-37.2-99.3-53.7-149.9-16.5-50.6-40.9-102.5-85.1-133.6-10.8-7.6-22.3-13.6-34.4-18.1-46.1-17.5-99.5-13.9-144.8,2.5-57.2,20.6-104.6,58.6-151.8,96.7-4.9,3.9-9.8,7.9-14.7,11.9-42.7,34.4-87.8,68.9-140.7,90.3-59.1,24-130.7,28.4-179.8-1.8"/>
      <path class="st2" d="M916.9,47.7c-59.4,62.4-120.6,124.5-182.7,200.2-11.5,14-22.9,28.5-34.2,43.3-23.1,30.2-46.3,61.8-75.8,87.7-29.7,26-66.8,46-106.6,47.3-4.5.1-9,0-13.4-.3-56.9-4.1-107.8-45.3-136.7-94.4-27.6-46.9-37.1-101.3-53.5-152.9-16.4-51.6-41-104.5-85.9-136-11-7.7-22.7-13.7-35-18.3-47-17.5-101.4-13.3-147.5,4C-12.6,50.1-60.6,89.7-108.3,129.3c-4.9,4.1-9.9,8.2-14.9,12.3-43.2,35.6-88.8,71.2-142.4,93.2-60,24.5-132.9,28.6-182.9-3.3"/>
      <path class="st2" d="M918.6,40.9c-58.3,66-118.1,131.6-178.8,209.3-11.2,14.4-22.4,29.2-33.5,44.2-22.6,30.7-45.4,62.7-74.6,88.9-29.4,26.3-66.4,46.5-106.2,47.9-4.5.2-9,0-13.4-.3-56.8-4.1-107.4-45.8-135.8-95.1-27.7-47.9-37-103.3-53.3-156-16.3-52.6-41-106.6-86.7-138.4-11.2-7.8-23.1-13.9-35.6-18.5-47.8-17.5-103.3-12.7-150.1,5.5C-8.4,51.3-57,92.6-105.2,133.6c-5,4.2-10,8.5-15,12.8-43.6,36.9-89.7,73.6-144.2,96-60.8,25.1-135.1,28.8-185.9-4.8"/>
      <path class="st2" d="M920.4,34c-57.2,69.5-115.7,138.8-174.9,218.3-11,14.7-21.9,29.8-32.7,45.1-22.2,31.2-44.4,63.7-73.3,90.2-29.1,26.6-66,47-105.7,48.4-4.5.2-9,0-13.4-.3-56.7-4.2-106.9-46.3-135-95.9-27.7-48.9-36.8-105.3-53-159-16.2-53.6-41.1-108.6-87.5-140.9-11.4-7.9-23.5-14-36.2-18.6C159.8,3.8,103.3,9.2,55.8,28.4-4.3,52.6-53.4,95.4-102.2,137.9c-5,4.4-10.1,8.8-15.2,13.2-44.1,38.2-90.7,75.9-145.9,98.8-61.7,25.6-137.3,29-189-6.3"/>
      <path class="st2" d="M922.1,27.1c-56.1,73.1-113.3,145.9-171.1,227.4-10.7,15.1-21.3,30.4-31.9,46-21.7,31.8-43.4,64.6-72.1,91.4-28.8,26.9-65.6,47.6-105.3,48.9-4.5.2-8.9,0-13.4-.3-56.5-4.2-106.5-46.8-134.1-96.6-27.7-49.9-36.7-107.4-52.8-162-16.1-54.6-41.1-110.6-88.3-143.3-11.5-8-23.9-14.2-36.9-18.8C166.7,2.3,109.2,8.3,60.9,28.4-.1,53.8-49.9,98.3-99.1,142.2c-5.1,4.5-10.2,9.1-15.4,13.7-44.6,39.4-91.6,78.3-147.6,101.7-62.5,26.1-139.4,29.2-192-7.7"/>
      <path class="st2" d="M923.8,20.2c-55,76.6-110.9,153.1-167.2,236.4-10.4,15.4-20.8,31.1-31.2,46.9-21.2,32.3-42.5,65.5-70.9,92.7-28.5,27.2-65.2,48.1-104.9,49.5-4.5.2-8.9,0-13.3-.3-56.4-4.3-106-47.3-133.3-97.4-27.8-50.9-36.6-109.4-52.6-165-16-55.6-41.2-112.7-89.1-145.7-11.7-8.1-24.3-14.3-37.5-18.9C173.6.8,115,7.4,66,28.5,4,55-46.3,101.1-96,146.5c-5.1,4.7-10.3,9.4-15.5,14.1-45,40.7-92.6,80.6-149.4,104.5-63.4,26.7-141.6,29.4-195.1-9.2"/>
      <path class="st2" d="M925.6,13.3c-53.9,80.2-108.4,160.3-163.3,245.5-10.2,15.8-20.3,31.7-30.4,47.8-20.7,32.8-41.5,66.5-69.6,94-28.2,27.5-64.9,48.6-104.4,50-4.5.2-8.9,0-13.3-.3-56.3-4.3-105.5-47.8-132.4-98.1-27.8-52-36.4-111.4-52.3-168-15.9-56.6-41.3-114.7-90-148.2-11.9-8.2-24.7-14.5-38.1-19.1C180.5-.7,120.9,6.5,71.1,28.5,8.2,56.2-42.7,104-93,150.8c-5.2,4.8-10.4,9.7-15.7,14.6-45.5,42-93.5,83-151.1,107.4-64.3,27.2-143.8,29.6-198.1-10.7"/>
      <path class="st2" d="M927.3,6.5c-52.8,83.8-106,167.4-159.5,254.5-9.9,16.1-19.8,32.4-29.6,48.7-20.2,33.4-40.6,67.4-68.4,95.2-27.9,27.8-64.5,49.2-104,50.6-4.5.2-8.9,0-13.3-.3-56.2-4.3-105.1-48.3-131.6-98.8-27.8-53-36.3-113.4-52.1-171-15.8-57.6-41.3-116.7-90.8-150.6-12.1-8.3-25.1-14.6-38.7-19.3C187.4-2.3,126.7,5.6,76.2,28.5,12.3,57.5-39.2,106.9-89.9,155.1c-5.3,5-10.5,10-15.8,15-46,43.2-94.5,85.3-152.8,110.2-65.1,27.7-146,29.8-201.2-12.2"/>
      <path class="st2" d="M929.1-.4c-51.7,87.3-103.6,174.6-155.6,263.6-9.6,16.5-19.2,33-28.9,49.6-19.7,33.9-39.6,68.3-67.1,96.5-27.6,28.1-64.1,49.7-103.5,51.1-4.5.2-8.9,0-13.3-.3-56.1-4.4-104.6-48.8-130.7-99.6-27.8-54-36.2-115.4-51.9-174.1-15.7-58.6-41.4-118.8-91.6-153-12.3-8.4-25.5-14.8-39.3-19.4C194.3-3.8,132.6,4.7,81.2,28.6,16.5,58.7-35.6,109.7-86.8,159.4c-5.3,5.1-10.6,10.3-16,15.4-46.4,44.5-95.4,87.7-154.6,113-66,28.3-148.2,30-204.2-13.7"/>
      <path class="st2" d="M930.8-7.3c-59.9,107.7-119.9,215.4-179.8,323.1-19.2,34.4-38.6,69.3-65.9,97.7-27.3,28.4-63.7,50.2-103.1,51.7-61.6,2.3-115.4-45.6-143.1-100.6-27.7-55-36.1-117.4-51.6-177.1-15.6-59.6-41.4-120.8-92.4-155.5C234.7-9,152.1-2.7,86.3,28.6,20.6,59.9-32,112.6-83.8,163.7c-51.8,51.2-105.6,102.9-172.5,131.8-66.8,28.8-150.4,30.2-207.3-15.2"/>
    </g>
    <g>
      <path class="st1" d="M-435.3,317.9c44.2-40,109.1-49.9,168-41.1,58.9,8.8,113.9,33.9,169,56.8,55,22.9,112.4,44.1,172,44.2,118.5.3,224.2-82,342.6-88.2,99.6-5.3,192.7,43.4,284.5,82.3,91.8,38.9,198.3,68.8,288.9,27.2"/>
      <path class="st1" d="M989.1,396.2c-65.5,29-138.9,23.2-208.9,4-27.1-7.4-53.7-16.8-79.2-27-39.2-15.6-78.8-33-119.1-47.7-53.7-19.6-108.6-34.3-165.3-32.1-6.1.2-12.2.7-18.3,1.3-61.5,6.2-119.7,30.4-178.5,50.4-47,16-94.5,29.4-144.3,28.8-13.1-.2-26-1.3-38.9-3.2-45.8-6.7-90.2-23-133.2-40.2-55.1-22-110.1-46.1-168.9-53.6-59.7-7.6-125.4,3.9-171.2,42.9"/>
      <path class="st1" d="M988.5,393.3c-65.7,28.1-138.9,23.6-208.5,6.1-26.9-6.8-53.4-15.4-78.8-24.8-39.1-14.5-78.6-30.9-119-45-53.8-18.8-108.7-33.6-165.2-32.3-6.1.1-12.2.5-18.2,1-61.3,5.1-119,27.5-177.5,45.9-46.7,14.8-94,27-143.7,25.9-13-.3-26-1.5-38.9-3.4-45.8-6.9-90.3-22.7-133.4-39.1-55.2-21-110.2-44.2-168.8-50.5-60.6-6.4-127.1,6.7-174.4,44.8"/>
      <path class="st1" d="M988,390.4c-65.8,27.1-138.9,24-208.1,8.2-26.8-6.1-53.1-14-78.4-22.7-39-13.4-78.4-28.7-118.9-42.2-53.9-18-108.9-33-165.2-32.4-6.1,0-12.2.3-18.2.7-61,4-118.4,24.6-176.6,41.4-46.5,13.5-93.6,24.5-143.2,22.9-13-.4-26-1.7-38.8-3.7-45.8-7-90.4-22.3-133.6-38-55.2-20.1-110.2-42.3-168.8-47.3-61.4-5.2-128.7,9.5-177.6,46.6"/>
      <path class="st1" d="M987.4,387.5c-66,26.1-138.9,24.4-207.6,10.3-26.6-5.4-52.8-12.6-78-20.6-38.9-12.2-78.2-26.5-118.8-39.5-53.9-17.3-109.1-32.3-165.2-32.6-6.1,0-12.1.1-18.1.4-60.8,2.9-117.8,21.7-175.6,36.9-46.2,12.2-93.1,22.1-142.7,20-13-.5-25.9-1.9-38.8-3.9-45.8-7.1-90.5-22-133.8-36.9-55.3-19.2-110.3-40.4-168.7-44.1-62.3-4-130.3,12.3-180.8,48.4"/>
      <path class="st1" d="M986.8,384.6c-66.2,25.1-138.9,24.7-207.2,12.4-26.4-4.7-52.5-11.2-77.6-18.4-38.7-11.1-78-24.4-118.7-36.8-54-16.5-109.2-31.7-165.2-32.8-6.1-.1-12.1,0-18,.1-60.5,1.8-117.1,18.8-174.7,32.4-46,10.9-92.7,19.7-142.1,17.1-13-.7-25.9-2.1-38.8-4.2-45.9-7.3-90.6-21.6-134-35.9-55.4-18.3-110.5-38.4-168.6-40.9-63.1-2.8-132,15.1-184,50.3"/>
      <path class="st1" d="M986.3,381.7c-66.3,24.2-138.9,25.1-206.8,14.5-26.3-4.1-52.2-9.7-77.2-16.3-38.6-10-77.9-22.2-118.6-34-54.1-15.8-109.4-31-165.1-33-6-.2-12-.3-18-.2-60.3.8-116.5,15.9-173.8,27.9-45.7,9.7-92.3,17.2-141.6,14.2-12.9-.8-25.9-2.3-38.7-4.4-45.9-7.4-90.7-21.3-134.2-34.8-55.4-17.4-110.6-36.4-168.6-37.8-64-1.5-133.6,17.9-187.1,52.1"/>
      <path class="st1" d="M985.7,378.9c-66.5,23.2-138.9,25.5-206.4,16.6-26.1-3.4-51.9-8.3-76.9-14.2-38.5-8.9-77.7-20.1-118.5-31.3-54.2-15-109.5-30.4-165.1-33.2-6-.3-12-.5-17.9-.5-60.1-.3-115.9,13-172.8,23.4-45.4,8.4-91.8,14.8-141,11.2-12.9-.9-25.8-2.6-38.7-4.7-45.9-7.5-90.8-20.9-134.4-33.7-55.5-16.4-110.7-34.4-168.5-34.6-64.9-.3-135.2,20.7-190.3,54"/>
      <path class="st1" d="M985.1,376c-66.7,22.2-138.9,25.9-205.9,18.7-26-2.7-51.6-6.9-76.5-12-38.4-7.8-77.5-17.9-118.4-28.6-54.2-14.3-109.7-29.7-165.1-33.4-6-.4-11.9-.6-17.8-.8-59.8-1.4-115.3,10.1-171.9,18.9-45.2,7.1-91.4,12.3-140.5,8.3-12.9-1.1-25.8-2.8-38.7-4.9-45.9-7.7-90.9-20.6-134.5-32.6-55.6-15.5-110.8-32.3-168.4-31.4-65.8,1-136.8,23.5-193.5,55.8"/>
      <path class="st1" d="M984.6,373.1c-66.8,21.2-138.9,26.2-205.5,20.8-25.8-2.1-51.3-5.5-76.1-9.9-38.3-6.7-77.3-15.8-118.3-25.9-54.3-13.5-109.9-29.1-165-33.5-6-.5-11.9-.8-17.8-1.1-59.6-2.5-114.6,7.2-170.9,14.4-44.9,5.8-90.9,9.9-140,5.4-12.9-1.2-25.8-3-38.6-5.2-46-7.8-91-20.2-134.7-31.5-55.6-14.6-111-30.3-168.4-28.3-66.7,2.3-138.5,26.3-196.7,57.7"/>
      <path class="st1" d="M984,370.2c-67,20.3-138.9,26.6-205.1,22.9-25.7-1.4-51-4.1-75.7-7.8-38.1-5.6-77.1-13.6-118.2-23.1-54.4-12.7-110-28.4-165-33.7-6-.6-11.9-1-17.7-1.4-59.4-3.5-114,4.3-170,9.9-44.6,4.6-90.5,7.5-139.4,2.5-12.9-1.3-25.7-3.2-38.6-5.4-46-7.9-91.1-19.9-134.9-30.5-55.7-13.7-111.1-28.2-168.3-25.1-67.7,3.7-140.1,29.1-199.9,59.5"/>
      <path class="st1" d="M983.4,367.3c-67.2,19.3-138.9,27-204.6,25-25.5-.7-50.7-2.7-75.3-5.6-38-4.4-76.9-11.4-118.1-20.4-54.4-12-110.2-27.8-165-33.9-5.9-.7-11.8-1.2-17.6-1.7-59.1-4.6-113.4,1.4-169,5.4-44.4,3.3-90.1,5-138.9-.4-12.8-1.5-25.7-3.4-38.6-5.7-46-8.1-91.2-19.4-135.1-29.4-55.8-12.6-111.3-26-168.2-21.9-68.6,5-141.7,32-203.1,61.4"/>
      <path class="st1" d="M982.9,364.4c-67.3,18.3-138.8,27.4-204.2,27.1-25.3,0-50.4-1.2-74.9-3.5-37.9-3.3-76.8-9.3-118-17.7-54.5-11.2-110.4-27.1-165-34.1-5.9-.8-11.8-1.4-17.6-1.9-58.9-5.7-112.8-1.5-168.1.8-44.1,2-89.6,2.6-138.4-3.4-12.8-1.6-25.6-3.6-38.5-5.9-46-8.2-91.3-19.1-135.3-28.3-55.9-11.7-111.4-23.9-168.2-18.7-69.5,6.4-143.3,34.8-206.3,63.2"/>
      <path class="st1" d="M982.3,361.5c-67.5,17.4-138.8,27.8-203.8,29.2-25.2.6-50.1.1-74.5-1.3-37.8-2.3-76.6-7.1-117.9-14.9-54.6-10.5-110.5-26.5-164.9-34.3-5.9-.8-11.7-1.6-17.5-2.2-58.7-6.8-112.1-4.4-167.2-3.7-43.9.7-89.2.2-137.8-6.3-12.8-1.7-25.6-3.8-38.5-6.2-46.1-8.3-91.4-18.7-135.5-27.2-55.9-10.8-111.6-21.8-168.1-15.6-70.4,7.7-145,37.6-209.5,65.1"/>
      <path class="st1" d="M981.7,358.6c-67.7,16.4-138.8,28.1-203.3,31.3-25,1.3-49.8,1.6-74.1.8-37.6-1.2-76.4-5-117.8-12.2-54.7-9.7-110.7-25.8-164.9-34.4-5.9-.9-11.7-1.8-17.4-2.5-58.4-7.9-111.5-7.3-166.2-8.2-43.6-.5-88.7-2.3-137.3-9.2-12.8-1.8-25.6-4-38.5-6.4-46.1-8.5-91.5-18.4-135.7-26.1-56-9.9-111.8-19.6-168-12.4-71.4,9.2-146.6,40.4-212.7,66.9"/>
      <path class="st1" d="M981.2,355.7c-67.8,15.4-138.8,28.5-202.9,33.4-24.9,2-49.5,3-73.7,2.9-37.5,0-76.2-2.8-117.7-9.5-54.7-9-110.8-25.2-164.9-34.6-5.8-1-11.6-2-17.4-2.8-58.2-8.9-110.9-10.2-165.3-12.7-43.3-1.8-88.3-4.7-136.7-12.1-12.7-2-25.5-4.3-38.4-6.6-46.1-8.6-91.6-18-135.9-25.1-56.1-8.9-111.9-17.4-168-9.2-72.3,10.6-148.2,43.2-215.9,68.7"/>
      <path class="st1" d="M980.6,352.8c-68,14.4-138.8,28.9-202.5,35.5-24.7,2.6-49.2,4.4-73.4,5.1-37.4,1-76-.7-117.6-6.7-54.8-8.2-111-24.5-164.9-34.8-5.8-1.1-11.6-2.1-17.3-3.1-58-10-110.3-13.1-164.3-17.2-43.1-3.1-87.9-7.1-136.2-15.1-12.7-2.1-25.5-4.5-38.4-6.9-46.1-8.7-91.7-17.6-136-24-56.1-8-112.1-15.2-167.9-6-73.2,12-149.9,46-219,70.6"/>
      <path class="st1" d="M980.1,349.9c-68.1,13.5-138.8,29.3-202.1,37.6-24.5,3.3-48.9,5.8-73,7.2-37.3,2.2-75.8,1.5-117.5-4-54.9-7.4-111.2-23.9-164.8-35-5.8-1.2-11.6-2.3-17.2-3.4-57.7-11.1-109.6-16-163.4-21.7-42.8-4.4-87.4-9.6-135.7-18-12.7-2.2-25.5-4.7-38.4-7.1-46.2-8.9-91.8-17.3-136.2-22.9-56.2-7.1-112.2-13-167.8-2.9-74.2,13.5-151.5,48.8-222.2,72.4"/>
      <path class="st1" d="M979.5,347.1c-68.3,12.5-138.8,29.6-201.6,39.7-24.4,4-48.6,7.2-72.6,9.3-37.2,3.3-75.7,3.7-117.4-1.3-55-6.7-111.3-23.2-164.8-35.2-5.8-1.3-11.5-2.5-17.2-3.7-57.5-12.2-109-18.9-162.5-26.2-42.5-5.6-87-12-135.1-20.9-12.7-2.4-25.4-4.9-38.3-7.4-46.2-9-91.9-16.9-136.4-21.8-56.3-6.2-112.4-10.7-167.8.3-75.1,15-153.1,51.6-225.4,74.3"/>
      <path class="st1" d="M978.9,344.2c-68.5,11.5-138.8,30-201.2,41.8-24.2,4.7-48.3,8.6-72.2,11.5-37,4.4-75.5,5.8-117.3,1.5-55-5.9-111.5-22.6-164.8-35.4-5.8-1.4-11.5-2.7-17.1-4-57.3-13.3-108.4-21.8-161.5-30.7-42.3-6.9-86.5-14.4-134.6-23.8-12.6-2.5-25.4-5.1-38.3-7.6-46.2-9.1-92-16.6-136.6-20.7-56.3-5.2-112.5-8.5-167.7,3.5-76,16.5-154.7,54.4-228.6,76.1"/>
      <path class="st1" d="M978.4,341.3c-68.6,10.5-138.8,30.4-200.8,43.9-24.1,5.3-48,10.1-71.8,13.6-36.9,5.5-75.3,8-117.2,4.2-55.1-5.2-111.6-21.9-164.8-35.5-5.7-1.5-11.4-2.9-17-4.3-57-14.3-107.8-24.7-160.6-35.2-42-8.2-86.1-16.9-134.1-26.8-12.6-2.6-25.4-5.3-38.3-7.9-46.2-9.3-92.1-16.2-136.8-19.7-56.4-4.3-112.7-6.2-167.6,6.7-76.9,18-156.4,57.2-231.8,78"/>
      <path class="st1" d="M977.8,338.4c-68.8,9.6-138.8,30.8-200.3,46-23.9,6-47.7,11.5-71.4,15.7-36.8,6.6-75.1,10.1-117.1,6.9-55.2-4.4-111.8-21.3-164.7-35.7-5.7-1.6-11.4-3.1-17-4.6-56.8-15.4-107.1-27.6-159.6-39.7-41.8-9.5-85.7-19.3-133.5-29.7-12.6-2.7-25.3-5.5-38.2-8.1-46.3-9.4-92.2-15.9-137-18.6-56.5-3.4-112.8-3.9-167.6,9.8-77.8,19.6-158,60-235,79.8"/>
      <path class="st1" d="M977.2,335.5c-69,8.6-138.7,31.2-199.9,48.1-23.8,6.7-47.4,12.9-71,17.9-36.7,7.7-74.9,12.3-117,9.6-55.3-3.7-112-20.7-164.7-35.9-5.7-1.6-11.3-3.3-16.9-4.9-56.6-16.5-106.5-30.5-158.7-44.2-41.5-10.7-85.2-21.7-133-32.6-12.6-2.9-25.3-5.7-38.2-8.4-46.3-9.5-92.3-15.5-137.2-17.5-56.5-2.5-112.9-1.6-167.5,13-78.8,21.1-159.6,62.8-238.2,81.7"/>
      <path class="st1" d="M976.7,332.6c-69.1,7.6-138.7,31.5-199.5,50.2-23.6,7.3-47.1,14.3-70.6,20-36.6,8.8-74.7,14.4-116.9,12.4-55.3-2.9-112.1-20-164.7-36.1-5.7-1.7-11.3-3.5-16.8-5.2-56.3-17.6-105.9-33.4-157.7-48.7-41.2-12-84.8-24.2-132.4-35.5-12.5-3-25.3-5.9-38.2-8.6-46.3-9.7-92.4-15.2-137.4-16.4-56.6-1.6-113.1.7-167.4,16.2-79.6,22.7-161.2,65.6-241.4,83.5"/>
      <path class="st1" d="M976.1,329.7c-69.3,6.7-138.7,31.9-199,52.3-23.4,8-46.8,15.7-70.2,22.1-36.4,10-74.6,16.6-116.8,15.1-55.4-2.1-112.3-19.4-164.6-36.3-5.7-1.8-11.3-3.7-16.8-5.5-56.1-18.6-105.2-36.4-156.8-53.2-41-13.3-84.3-26.6-131.9-38.5-12.5-3.1-25.2-6.2-38.1-8.9-46.3-9.8-92.5-14.8-137.6-15.3-56.7-.6-113.2,3-167.4,19.4-80.5,24.3-162.9,68.4-244.6,85.4"/>
      <path class="st1" d="M975.5,326.8c-69.5,5.7-138.7,32.3-198.6,54.4-23.3,8.7-46.5,17.1-69.9,24.3-36.3,11.1-74.4,18.8-116.7,17.8-55.5-1.4-112.5-18.7-164.6-36.4-5.6-1.9-11.2-3.8-16.7-5.8-55.9-19.7-104.6-39.3-155.9-57.8-40.7-14.6-83.9-29-131.4-41.4-12.5-3.3-25.2-6.4-38.1-9.1-46.4-9.9-92.6-14.5-137.7-14.3-56.7.3-113.3,5.3-167.3,22.5-81.4,26-164.5,71.2-247.8,87.2"/>
      <path class="st1" d="M975,323.9c-69.6,4.7-138.7,32.7-198.2,56.5-23.1,9.3-46.2,18.6-69.5,26.4-36.2,12.2-74.2,20.9-116.6,20.6-55.6-.6-112.6-18.1-164.6-36.6-5.6-2-11.2-4-16.6-6.1-55.6-20.8-104-42.2-154.9-62.3-40.5-15.8-83.5-31.5-130.8-44.3-12.5-3.4-25.2-6.6-38.1-9.4-46.4-10.1-92.7-14.1-137.9-13.2-56.8,1.2-113.4,7.7-167.2,25.7-82.3,27.6-166.1,74-250.9,89"/>
      <path class="st1" d="M974.4,321c-69.8,3.7-138.7,33-197.8,58.6-23,10-45.9,20-69.1,28.5-36.1,13.3-74,23.1-116.5,23.3-55.6.1-112.8-17.4-164.6-36.8-5.6-2.1-11.1-4.2-16.6-6.3-55.4-21.9-103.4-45.1-154-66.8-40.2-17.1-83-33.9-130.3-47.2-12.5-3.5-25.1-6.8-38-9.6-46.4-10.2-92.8-13.8-138.1-12.1-56.9,2.1-113.5,10-167.2,28.9-83.1,29.3-167.8,76.8-254.1,90.9"/>
      <path class="st1" d="M973.8,318.1c-70,2.8-138.7,33.4-197.3,60.7-22.8,10.7-45.5,21.4-68.7,30.7-35.9,14.5-73.8,25.2-116.4,26-55.7.9-112.9-16.8-164.5-37-5.6-2.2-11.1-4.4-16.5-6.6-55.2-23-102.7-48-153-71.3-39.9-18.4-82.6-36.3-129.8-50.1-12.4-3.6-25.1-7-38-9.9-46.4-10.3-92.9-13.4-138.3-11-56.9,3-113.6,12.4-167.1,32.1-84,31-169.4,79.6-257.3,92.7"/>
      <path class="st1" d="M973.3,315.3c-70.1,1.8-138.7,33.8-196.9,62.8-22.7,11.4-45.2,22.9-68.3,32.8-35.8,15.6-73.6,27.4-116.3,28.8-55.8,1.7-113.1-16.1-164.5-37.2-5.6-2.3-11-4.6-16.4-6.9-54.9-24-102.1-50.9-152.1-75.8-39.7-19.7-82.1-38.8-129.2-53.1-12.4-3.8-25.1-7.2-38-10.1-46.4-10.5-93-13.1-138.5-9.9-57,3.9-113.7,14.7-167,35.2-84.8,32.7-171,82.5-260.5,94.6"/>
      <path class="st1" d="M972.7,312.4c-70.3.8-138.7,34.2-196.5,64.9-22.5,12-44.9,24.3-67.9,34.9-35.7,16.7-73.5,29.5-116.2,31.5-55.9,2.4-113.3-15.5-164.5-37.3-5.5-2.4-11-4.8-16.4-7.2-54.7-25.1-101.5-53.8-151.1-80.3-39.4-20.9-81.7-41.2-128.7-56-12.4-3.9-25-7.4-37.9-10.4-46.5-10.6-93.1-12.8-138.7-8.8-57.1,4.7-113.8,17.1-167,38.4-85.6,34.4-172.6,85.3-263.7,96.4"/>
      <path class="st1" d="M972.2,309.5c-70.5-.2-138.7,34.6-196,67-22.3,12.7-44.6,25.7-67.5,37.1-35.6,17.8-73.3,31.7-116.1,34.2-55.9,3.2-113.4-14.8-164.5-37.5-5.5-2.5-11-5-16.3-7.5-54.5-26.2-100.9-56.7-150.2-84.8-39.1-22.2-81.3-43.6-128.1-58.9-12.4-4-25-7.6-37.9-10.6-46.5-10.7-93.2-12.5-138.9-7.8-57.1,5.7-113.9,19.5-166.9,41.6-86.4,36.1-174.3,88.1-266.9,98.3"/>
      <path class="st1" d="M971.6,306.6c-70.6-1.1-138.7,34.9-195.6,69.1-22.2,13.4-44.3,27.1-67.1,39.2-35.4,18.9-73.1,33.9-116,37-56,3.9-113.6-14.2-164.4-37.7-5.5-2.5-10.9-5.2-16.2-7.8-54.2-27.3-100.2-59.6-149.3-89.3-38.9-23.5-80.8-46.1-127.6-61.8-12.3-4.2-24.9-7.9-37.9-10.9-46.5-10.9-93.3-12.1-139.1-6.7-57.2,6.6-113.9,21.8-166.8,44.8-87.2,37.8-175.9,90.9-270.1,100.1"/>
      <path class="st1" d="M971,303.7c-70.8-2.1-138.6,35.3-195.2,71.2-22,14-44,28.5-66.7,41.3-35.3,20.1-72.9,36-115.9,39.7-56.1,4.7-113.7-13.5-164.4-37.9-5.5-2.6-10.9-5.3-16.2-8.1-54-28.4-99.6-62.5-148.3-93.8-38.6-24.8-80.4-48.5-127.1-64.8-12.3-4.3-24.9-8.1-37.8-11.1-46.5-11-93.4-11.8-139.2-5.6-57.3,7.5-114,24.2-166.8,47.9-88,39.6-177.5,93.7-273.3,102"/>
      <path class="st1" d="M970.5,300.8c-71-3.1-138.6,35.7-194.8,73.3-21.9,14.7-43.7,30-66.4,43.5-35.2,21.2-72.7,38.2-115.8,42.4-56.2,5.4-113.9-12.9-164.4-38.1-5.5-2.7-10.8-5.5-16.1-8.4-53.8-29.4-99-65.4-147.4-98.3-38.4-26-79.9-50.9-126.5-67.7-12.3-4.4-24.9-8.3-37.8-11.4-46.6-11.1-93.5-11.4-139.4-4.5-57.3,8.4-114.1,26.6-166.7,51.1-88.8,41.4-179.1,96.5-276.5,103.8"/>
      <path class="st1" d="M969.9,297.9c-71.1-4-138.6,36.1-194.3,75.4-21.7,15.4-43.4,31.4-66,45.6-35.1,22.3-72.5,40.3-115.6,45.2-56.2,6.2-114.1-12.2-164.4-38.3-5.4-2.8-10.8-5.7-16-8.7-53.5-30.5-98.4-68.3-146.4-102.8-38.1-27.3-79.5-53.4-126-70.6-12.3-4.6-24.8-8.5-37.8-11.6-46.6-11.3-93.6-11.1-139.6-3.4-57.4,9.4-114.1,29-166.6,54.3-89.5,43.1-180.8,99.3-279.7,105.7"/>
      <path class="st1" d="M969.3,295c-71.3-5-138.6,36.4-193.9,77.5-21.5,16.1-43.1,32.8-65.6,47.8-35,23.4-72.3,42.5-115.5,47.9-56.3,7-114.2-11.6-164.3-38.4-5.4-2.9-10.7-5.9-16-9-53.3-31.6-97.7-71.2-145.5-107.3-37.8-28.6-79.1-55.8-125.4-73.5-12.2-4.7-24.8-8.7-37.7-11.9-46.6-11.4-93.7-10.7-139.8-2.4-57.5,10.3-114.2,31.4-166.6,57.5-90.3,44.9-182.4,102.1-282.8,107.5"/>
      <path class="st1" d="M968.8,292.1c-71.5-6-138.6,36.8-193.5,79.6-21.4,16.7-42.8,34.2-65.2,49.9-34.8,24.5-72.2,44.6-115.4,50.6-56.4,7.7-114.4-10.9-164.3-38.6-5.4-3-10.7-6.1-15.9-9.3-53.1-32.7-97.1-74.1-144.5-111.8-37.6-29.9-78.6-58.2-124.9-76.5-12.2-4.8-24.8-8.9-37.7-12.1-46.6-11.5-93.8-10.4-140-1.3-57.5,11.2-114.2,33.8-166.5,60.6-91,46.7-184,104.9-286,109.3"/>
      <path class="st1" d="M968.2,289.2c-71.6-7-138.6,37.2-193,81.7-21.2,17.4-42.5,35.6-64.8,52-34.7,25.6-72,46.8-115.3,53.3-56.4,8.5-114.5-10.3-164.3-38.8-5.4-3.1-10.7-6.3-15.8-9.6-52.8-33.7-96.5-77-143.6-116.4-37.3-31.1-78.2-60.7-124.4-79.4-12.2-4.9-24.7-9.1-37.7-12.4-46.7-11.7-93.9-10-140.2-.2-57.6,12.1-114.2,36.2-166.4,63.8-91.7,48.5-185.7,107.7-289.2,111.2"/>
      <path class="st1" d="M967.6,286.4c-71.8-7.9-138.6,37.6-192.6,83.8-21.1,18.1-42.2,37-64.4,54.2-34.6,26.7-71.8,49-115.2,56.1-56.5,9.2-114.7-9.6-164.2-39-5.4-3.2-10.6-6.5-15.8-9.9-52.6-34.8-95.9-79.9-142.7-120.9-37-32.4-77.7-63.1-123.8-82.3-12.2-5.1-24.7-9.3-37.6-12.6-46.7-11.8-94-9.6-140.4.9-57.7,13-114.2,38.6-166.4,67-92.4,50.4-187.3,110.5-292.4,113"/>
      <path class="st1" d="M967.1,283.5c-72-8.9-138.6,38-192.2,85.9-20.9,18.7-41.9,38.5-64,56.3-34.5,27.9-71.6,51.1-115.1,58.8-56.6,10-114.9-9-164.2-39.2-5.3-3.3-10.6-6.7-15.7-10.2-52.4-35.9-95.2-82.8-141.7-125.4-36.8-33.7-77.3-65.5-123.3-85.2-12.1-5.2-24.7-9.6-37.6-12.9-46.7-11.9-94.1-9.3-140.6,2-57.8,14-114.2,41-166.3,70.2-93.1,52.2-188.9,113.3-295.6,114.9"/>
      <path class="st1" d="M966.5,280.6c-72.1-9.9-138.6,38.3-191.7,88.1-53.2,49.7-107.1,106.4-178.7,120-62.8,11.9-127.7-12.8-179.8-49.8-52.1-37-94.6-85.7-140.8-129.9-46.2-44.2-98.4-85.3-160.3-101.3-104.8-27.1-213.2,22.3-307,76.4-93.8,54.1-190.5,116.1-298.8,116.7"/>
    </g>
  </g>
</svg>